<svg xmlns="http://www.w3.org/2000/svg" fill="none" viewBox="0 0 16 16"><path fill="currentColor" d="M14.875.656c.25-.25.656-.062.656.25v4.469a.38.38 0 01-.375.375h-4.5a.36.36 0 01-.25-.625l1.688-1.688A5.992 5.992 0 007.78 1.625a6.134 6.134 0 00-6.125 5.781c-.031.219-.187.344-.375.344H.406c-.219 0-.406-.156-.375-.375C.22 3.281 3.625 0 7.781 0c2.125 0 4.063.875 5.469 2.281L14.875.656zm.25 7.094c.219 0 .406.188.375.406-.188 4.094-3.594 7.344-7.719 7.344-2.156 0-4.093-.844-5.5-2.25L.656 14.875a.36.36 0 01-.625-.25v-4.5a.38.38 0 01.375-.375h4.469c.313 0 .5.406.25.656l-1.688 1.688c1.094 1.125 2.626 1.781 4.344 1.781a6.1 6.1 0 006.094-5.75c.031-.219.188-.375.375-.375h.875z"/></svg>